<svg id="Layer_1" data-name="Layer 1" xmlns="http://www.w3.org/2000/svg" viewBox="0 0 700 850"><defs><style>.cls-1{fill:#ecba51;}.cls-2{fill:#9b5606;}.cls-3{fill:#f4d282;}.cls-4{fill:#0b0a0b;}.cls-5{fill:#713e06;}</style></defs><title>FF_Logo_SVG-original</title><g id="ORIGINAL_COLOUR" data-name="ORIGINAL COLOUR"><path class="cls-1" d="M182.19,661.76h-16v11h15.46v6.52H166.16v21.89h-6.94v-46h23v6.52Z"/><path class="cls-1" d="M193.18,678a22.52,22.52,0,0,1,7.12-16.68,23.43,23.43,0,0,1,17-7,24.05,24.05,0,0,1,23.92,23.92,22.62,22.62,0,0,1-7.09,16.83,24.3,24.3,0,0,1-33.18.77Q193.18,689.08,193.18,678Zm7,0.09a16.62,16.62,0,0,0,5.12,12.54,17,17,0,0,0,24-.09,17.85,17.85,0,0,0,.06-24.66,17.15,17.15,0,0,0-24.22,0A16.59,16.59,0,0,0,200.18,678.12Z"/><path class="cls-1" d="M262.11,655.24v46h-6.94v-46h6.94Z"/><path class="cls-1" d="M287.64,681.36l-15-26.12h8l10.51,18.38,10.54-18.38h8l-15.07,26.12v19.87h-6.94V681.36Z"/><path class="cls-1" d="M367.11,661.76h-16v11h15.46v6.52H351.08v21.89h-6.94v-46h23v6.52Z"/><path class="cls-1" d="M378.1,678a22.52,22.52,0,0,1,7.12-16.68,23.43,23.43,0,0,1,17-7,24.05,24.05,0,0,1,23.92,23.92,22.61,22.61,0,0,1-7.09,16.83,24.3,24.3,0,0,1-33.18.77Q378.1,689.08,378.1,678Zm7,0.09a16.62,16.62,0,0,0,5.12,12.54,17,17,0,0,0,24-.09,17.85,17.85,0,0,0,.06-24.66,17.15,17.15,0,0,0-24.22,0A16.59,16.59,0,0,0,385.1,678.12Z"/><path class="cls-1" d="M466.09,662.09l-5.63,3.34a9.67,9.67,0,0,0-3-3.57,7,7,0,0,0-3.84-1,7.1,7.1,0,0,0-4.79,1.64,5.08,5.08,0,0,0-1.91,4.05q0,3.37,5,5.42l4.59,1.88q5.6,2.26,8.19,5.53a12.45,12.45,0,0,1,2.59,8A14.05,14.05,0,0,1,463,697.89a14.52,14.52,0,0,1-10.57,4.17,14.14,14.14,0,0,1-9.89-3.54q-3.84-3.54-4.8-10l7-1.55q0.48,4.05,1.67,5.6a7.92,7.92,0,0,0,11.65.8,7.52,7.52,0,0,0,2.14-5.51,7.71,7.71,0,0,0-.37-2.46,6.25,6.25,0,0,0-1.16-2.06,9.3,9.3,0,0,0-2-1.76,19.7,19.7,0,0,0-3-1.56l-4.44-1.85q-9.44-4-9.44-11.68a11.08,11.08,0,0,1,4-8.67,14.31,14.31,0,0,1,9.86-3.51Q461.62,654.35,466.09,662.09Z"/><path class="cls-1" d="M487.77,673.23h19.84v-18h6.94v46h-6.94V679.75H487.77v21.47h-6.94v-46h6.94v18Z"/><path class="cls-1" d="M537.7,655.24v46h-6.94v-46h6.94Z"/><circle class="cls-2" cx="122.25" cy="679.3" r="6"/><circle class="cls-2" cx="577.75" cy="679.3" r="6"/><path class="cls-3" d="M350,770.77a2,2,0,0,1-1.41-.59l-20.71-20.71a2,2,0,0,1,0-2.83l20.71-20.71a2,2,0,0,1,2.83,0l20.71,20.71a2,2,0,0,1,0,2.83l-20.71,20.71A2,2,0,0,1,350,770.77Zm-17.88-22.71L350,765.94l17.88-17.88L350,730.18Z"/><path class="cls-3" d="M269.94,750.06H156.56a2,2,0,0,1,0-4H269.94A2,2,0,0,1,269.94,750.06Z"/><path class="cls-3" d="M543.44,750.06H430.06a2,2,0,0,1,0-4H543.44A2,2,0,0,1,543.44,750.06Z"/><g id="base"><rect class="cls-4" x="214.85" y="559.78" width="270.29" height="32.45"/><rect class="cls-5" x="214.85" y="569.17" width="270.29" height="23.06"/></g><g id="stairs"><rect class="cls-2" x="195.33" y="617.9" width="309.33" height="10"/><rect class="cls-2" x="238.29" y="562.78" width="223.42" height="12.78"/><rect class="cls-2" x="214.85" y="587.28" width="270.29" height="20.28"/><polygon class="cls-3" points="214.85 607.56 195.33 617.89 504.67 617.89 485.15 607.56 214.85 607.56"/><polygon class="cls-3" points="214.85 587.28 238.29 575.56 461.71 575.56 485.15 587.28 214.85 587.28"/><polygon class="cls-3" points="238.29 562.78 461.71 562.78 366.33 529.89 337.67 529.89 238.29 562.78"/></g><path id="frame" class="cls-5" d="M350,140.56s-139.88,26.67-139.88,158V555.23h18v-256S215.22,183.9,350,157.9c134.78,26,121.88,141.33,121.88,141.33v256h18V298.56C489.88,167.23,350,140.56,350,140.56Z"/><g id="doors"><path class="cls-5" d="M342.63,164.56v364l-110,37.33V301.23S222.63,192.56,342.63,164.56Z"/><g id="door"><polygon class="cls-4" points="244.65 455.56 331.06 426.39 331.06 505.15 244.65 534.92 244.65 455.56"/><polygon class="cls-4" points="244.65 328.51 244.65 444.75 331.06 414.98 331.06 299.09 244.65 328.51"/><polygon class="cls-4" points="331.06 179.9 331.06 287.85 244.65 317.13 244.65 294.98 246.15 273.72 250.8 253.73 257.78 236.73 269.3 219.23 280.55 208.66 290.39 200.44 300.38 193.75 309.55 187.85 319.3 183.73 331.06 179.9"/><polygon class="cls-5" points="256.22 462.23 319.3 440.4 319.3 498.36 256.22 520.04 256.22 462.23"/><polygon class="cls-5" points="256.22 340.04 319.3 318.63 319.3 403.22 256.22 424.01 256.22 340.04"/><polygon class="cls-5" points="319.3 198.43 307.07 203.12 298.3 207.23 290.39 212.48 282.3 219.48 275.33 226.23 268.05 235.56 262.8 246.57 259.55 257.76 257.28 268.29 256.24 275.3 256.22 284.48 256.22 298.76 265.3 295.98 319.44 277.33 319.3 198.43"/><path class="cls-1" d="M244.65,547.52a1.5,1.5,0,0,1-.49-2.92l86.41-29.78a1.5,1.5,0,0,1,1,2.84l-86.41,29.78A1.5,1.5,0,0,1,244.65,547.52Z"/><path class="cls-1" d="M244.65,319.13a1.5,1.5,0,0,1-1.5-1.5v-26.4a143.68,143.68,0,0,1,14.14-56.66c9.86-20,38.93-46.44,73.36-56.11a1.5,1.5,0,0,1,1.91,1.44v108a1.5,1.5,0,0,1-1,1.42L245.14,319A1.51,1.51,0,0,1,244.65,319.13Zm84.91-137.24c-32.76,9.86-60.18,35-69.58,54a140.49,140.49,0,0,0-13.83,55.34v24.3l83.41-28.74V181.89Zm1.5,106h0Z"/><path class="cls-1" d="M244.65,446.25a1.5,1.5,0,0,1-1.5-1.5V328.54a1.5,1.5,0,0,1,1-1.42l86.41-29.78a1.5,1.5,0,0,1,2,1.42V415a1.5,1.5,0,0,1-1,1.42l-86.41,29.78A1.51,1.51,0,0,1,244.65,446.25Zm1.5-116.64v113l83.41-28.74v-113ZM331.06,415h0Z"/><path class="cls-1" d="M244.65,536.43a1.5,1.5,0,0,1-1.5-1.5V455.29a1.5,1.5,0,0,1,1-1.42l86.41-29.78a1.5,1.5,0,0,1,2,1.42v79.64a1.5,1.5,0,0,1-1,1.42l-86.41,29.78A1.5,1.5,0,0,1,244.65,536.43Zm1.5-80.07v76.46l83.41-28.75V427.61Zm84.91,48.79h0Z"/><path class="cls-1" d="M256.41,521.54a1.5,1.5,0,0,1-1.5-1.5v-58a1.5,1.5,0,0,1,1-1.42L318.81,439a1.5,1.5,0,0,1,2,1.42v58a1.5,1.5,0,0,1-1,1.42l-62.9,21.68A1.51,1.51,0,0,1,256.41,521.54Zm1.5-58.4v54.79l59.9-20.64V442.5Zm61.4,35.22h0Z"/><path class="cls-1" d="M256.72,481.68l-0.63-2.93a40.68,40.68,0,0,0,12-5.18c7.71-5,11.58-11.73,11.5-20l3,0C282.78,475.82,257,481.63,256.72,481.68Z"/><path class="cls-1" d="M274.83,513.86c-5.37-11.45-18.54-13.8-18.67-13.82l0.49-3c0.6,0.1,14.84,2.6,20.89,15.5Z"/><path class="cls-1" d="M289.34,509.39l-3-.37c0-.29,4-28.65,33-27.28l-0.14,3C292.91,483.49,289.48,508.33,289.34,509.39Z"/><circle class="cls-1" cx="282.22" cy="479.04" r="3.14"/><path class="cls-1" d="M256.41,426.39a1.5,1.5,0,0,1-1.5-1.5V340.3a1.5,1.5,0,0,1,1-1.42l62.9-21.68a1.5,1.5,0,0,1,2,1.42v84.59a1.5,1.5,0,0,1-1,1.42l-62.9,21.68A1.51,1.51,0,0,1,256.41,426.39Zm1.5-85v81.42l59.9-20.64V320.73Zm61.4,61.85h0Z"/><path class="cls-1" d="M282.44,415.7c-3.45-17.75-26-19-26.23-19l0.13-3c0.25,0,25.15,1.32,29,21.4Z"/><path class="cls-1" d="M274.73,418.43c-1.58-6.46-5.11-10.72-10.49-12.68a18.23,18.23,0,0,0-7.65-1l-0.37-3c0.17,0,17-1.93,21.42,16Z"/><path class="cls-1" d="M318,351.85C313.41,328.5,291.56,330,290.64,330l-0.24-3c0.26,0,25.44-1.79,30.51,24.22Z"/><path class="cls-1" d="M302.08,408.66c0-.16-0.1-15.86,16.67-22.5l1.1,2.79c-14.79,5.86-14.78,19.09-14.78,19.66Z"/><path class="cls-1" d="M295.18,412.18l-3-.27c2.69-29.31,26.63-33.46,26.87-33.49l0.47,3-0.24-1.48,0.24,1.48C318.65,381.52,297.65,385.26,295.18,412.18Z"/><path class="cls-1" d="M256.28,300.59a1.5,1.5,0,0,1-1.5-1.5V279.8a103.36,103.36,0,0,1,10.38-41.59C272.4,223.52,293.74,204.09,319,197a1.5,1.5,0,0,1,1.91,1.44v78.9a1.5,1.5,0,0,1-1,1.42l-63.15,21.76A1.5,1.5,0,0,1,256.28,300.59Zm61.65-100.16c-23.6,7.28-43.31,25.37-50.09,39.1a102.07,102.07,0,0,0-10.07,40.26V297l60.15-20.73V200.44Zm1.5,76.89h0Z"/><path class="cls-1" d="M317.81,235.74c-1.22-10-4.6-17-10-20.8a18.86,18.86,0,0,0-13.76-3L293.36,209a21.75,21.75,0,0,1,16.14,3.5c6.17,4.36,10,12.06,11.29,22.89Z"/><path class="cls-1" d="M289.34,288.42l-3-.42c1.38-9.88,7.49-18.25,17.66-24.21a55.4,55.4,0,0,1,15-6l0.62,2.94C319.34,260.75,292.37,266.73,289.34,288.42Z"/><path class="cls-1" d="M282.45,289.91c-0.18-.77-4.67-19-25.17-20.12l0.17-3c22.79,1.28,27.88,22.23,27.93,22.44Z"/><path class="cls-1" d="M274.71,292.5c-2.84-15.76-17.51-14.29-18.13-14.22l-0.34-3c6.25-.71,18.76,1.87,21.42,16.67Z"/><polygon class="cls-1" points="287.85 234.05 292.28 241.36 300.38 244.36 292.28 250.22 287.85 259.1 283.43 251.78 275.33 248.78 283.43 242.92 287.85 234.05"/><circle cx="287.85" cy="246.57" r="1.7"/><path class="cls-1" d="M284.92,346.8s2.4,10.26,4.27,13.17c1.43,2.24,7.8,7.21,7.8,7.21s-6.37,5-7.8,7.21c-1.87,2.92-4.27,13.17-4.27,13.17s-2.4-10.26-4.27-13.17c-1.43-2.24-7.8-7.21-7.8-7.21s6.37-5,7.8-7.21C282.51,357.06,284.92,346.8,284.92,346.8Z"/><rect x="281.95" y="364.59" width="5.94" height="5.94" transform="translate(343.36 -93.81) rotate(45)"/></g><rect class="cls-5" x="180.13" y="299.09" width="54.94" height="13.71" rx="6.86" ry="6.86"/><rect class="cls-2" x="192.8" y="299.09" width="42.27" height="13.71" rx="6.86" ry="6.86"/><rect class="cls-5" x="180.13" y="553.07" width="54.94" height="13.71" rx="6.86" ry="6.86"/><rect class="cls-2" x="192.8" y="553.07" width="42.27" height="13.71" rx="6.86" ry="6.86"/><path class="cls-5" d="M357.37,164.56v364l110,37.33V301.23S477.37,192.56,357.37,164.56Z"/><g id="door-2" data-name="door"><polygon class="cls-4" points="455.35 455.56 368.94 426.39 368.94 505.15 455.35 534.92 455.35 455.56"/><polygon class="cls-4" points="455.35 328.51 455.35 444.75 368.94 414.98 368.94 299.09 455.35 328.51"/><polygon class="cls-4" points="368.94 179.9 368.94 287.85 455.35 317.13 455.35 294.98 453.85 273.72 449.2 253.73 442.22 236.73 430.7 219.23 419.45 208.66 409.61 200.44 399.62 193.75 390.45 187.85 380.7 183.73 368.94 179.9"/><polygon class="cls-5" points="443.78 462.23 380.7 440.4 380.7 498.36 443.78 520.04 443.78 462.23"/><polygon class="cls-5" points="443.78 340.04 380.7 318.63 380.7 403.22 443.78 424.01 443.78 340.04"/><polygon class="cls-5" points="380.7 198.43 392.93 203.12 401.7 207.23 409.61 212.48 417.7 219.48 424.67 226.23 431.95 235.56 437.2 246.57 440.45 257.76 442.72 268.29 443.76 275.3 443.78 284.48 443.78 298.76 434.7 295.98 380.56 277.33 380.7 198.43"/><path class="cls-1" d="M455.35,547.52a1.5,1.5,0,0,0,.49-2.92l-86.41-29.78a1.5,1.5,0,0,0-1,2.84l86.41,29.78A1.5,1.5,0,0,0,455.35,547.52Z"/><path class="cls-1" d="M454.86,319l-86.41-29.78a1.5,1.5,0,0,1-1-1.42v-108a1.5,1.5,0,0,1,1.91-1.44c34.44,9.67,63.5,36.13,73.36,56.11a143.68,143.68,0,0,1,14.14,56.66v26.4A1.5,1.5,0,0,1,454.86,319Zm-84.42-32.27,83.41,28.74v-24.3A140.49,140.49,0,0,0,440,235.89c-9.39-19-36.82-44.14-69.58-54V286.78Zm-1.51,1.07h0Z"/><path class="cls-1" d="M454.86,446.17l-86.41-29.78a1.5,1.5,0,0,1-1-1.42V298.76a1.5,1.5,0,0,1,2-1.42l86.41,29.78a1.5,1.5,0,0,1,1,1.42V444.75A1.5,1.5,0,0,1,454.86,446.17ZM370.44,300.87v113l83.41,28.74v-113ZM368.93,415h0Z"/><path class="cls-1" d="M454.86,536.34l-86.41-29.78a1.5,1.5,0,0,1-1-1.42V425.51a1.5,1.5,0,0,1,2-1.42l86.41,29.78a1.5,1.5,0,0,1,1,1.42v79.64A1.5,1.5,0,0,1,454.86,536.34ZM370.44,427.61v76.46l83.41,28.75V456.36Zm-1.51,77.53h0Z"/><path class="cls-1" d="M443.11,521.46l-62.9-21.68a1.5,1.5,0,0,1-1-1.42v-58a1.5,1.5,0,0,1,2-1.42l62.9,21.67a1.5,1.5,0,0,1,1,1.42v58A1.5,1.5,0,0,1,443.11,521.46Zm-60.91-79v54.79l59.9,20.64V463.14Zm-1.51,55.86h0Z"/><path class="cls-1" d="M443.28,481.68l0.63-2.93a40.68,40.68,0,0,1-12-5.18c-7.71-5-11.58-11.73-11.5-20l-3,0C417.22,475.82,443,481.63,443.28,481.68Z"/><path class="cls-1" d="M425.17,513.86c5.37-11.45,18.54-13.8,18.67-13.82l-0.49-3c-0.6.1-14.84,2.6-20.89,15.5Z"/><path class="cls-1" d="M410.66,509.39l3-.37c0-.29-4-28.65-33-27.28l0.14,3C407.09,483.49,410.52,508.33,410.66,509.39Z"/><circle class="cls-1" cx="417.78" cy="479.04" r="3.14"/><path class="cls-1" d="M443.11,426.31l-62.9-21.68a1.5,1.5,0,0,1-1-1.42V318.63a1.5,1.5,0,0,1,2-1.42l62.9,21.68a1.5,1.5,0,0,1,1,1.42v84.59A1.5,1.5,0,0,1,443.11,426.31ZM382.2,320.73v81.42l59.9,20.64V341.37Zm-1.51,82.49h0Z"/><path class="cls-1" d="M417.56,415.7c3.45-17.75,26-19,26.23-19l-0.13-3c-0.25,0-25.15,1.32-29,21.4Z"/><path class="cls-1" d="M425.27,418.43c1.58-6.46,5.11-10.72,10.49-12.68a18.23,18.23,0,0,1,7.65-1l0.38-3c-0.17,0-17-1.93-21.42,16Z"/><path class="cls-1" d="M382,351.85c4.55-23.35,26.4-21.88,27.32-21.81l0.24-3c-0.26,0-25.44-1.79-30.51,24.22Z"/><path class="cls-1" d="M397.92,408.66c0-.16.1-15.86-16.67-22.5l-1.1,2.79c14.79,5.86,14.78,19.09,14.78,19.66Z"/><path class="cls-1" d="M404.82,412.18l3-.27c-2.69-29.31-26.63-33.46-26.87-33.49l-0.47,3,0.24-1.48-0.24,1.48C381.35,381.52,402.35,385.26,404.82,412.18Z"/><path class="cls-1" d="M443.23,300.51l-63.15-21.76a1.5,1.5,0,0,1-1-1.42v-78.9A1.5,1.5,0,0,1,381,197c25.28,7.1,46.62,26.54,53.87,41.22a103.36,103.36,0,0,1,10.38,41.59v19.29A1.5,1.5,0,0,1,443.23,300.51Zm-61.16-24.25L442.22,297V279.8a102.07,102.07,0,0,0-10.07-40.26c-6.78-13.73-26.48-31.82-50.09-39.1v75.82Zm-1.51,1.07h0Z"/><path class="cls-1" d="M382.19,235.74c1.22-10,4.6-17,10-20.8a18.86,18.86,0,0,1,13.76-3l0.65-2.93a21.75,21.75,0,0,0-16.14,3.5c-6.17,4.36-10,12.06-11.29,22.89Z"/><path class="cls-1" d="M410.66,288.42l3-.42c-1.38-9.88-7.49-18.25-17.66-24.21a55.4,55.4,0,0,0-15-6l-0.62,2.94C380.66,260.75,407.63,266.73,410.66,288.42Z"/><path class="cls-1" d="M417.55,289.91c0.18-.77,4.67-19,25.17-20.12l-0.17-3c-22.79,1.28-27.88,22.23-27.93,22.44Z"/><path class="cls-1" d="M425.29,292.5c2.84-15.76,17.51-14.29,18.13-14.22l0.34-3c-6.25-.71-18.76,1.87-21.42,16.67Z"/><polygon class="cls-1" points="412.15 234.05 407.72 241.36 399.62 244.36 407.72 250.22 412.15 259.1 416.57 251.78 424.67 248.78 416.57 242.92 412.15 234.05"/><circle cx="412.15" cy="246.57" r="1.7"/><path class="cls-1" d="M415.08,346.8s-2.4,10.26-4.27,13.17c-1.43,2.24-7.8,7.21-7.8,7.21s6.37,5,7.8,7.21c1.87,2.92,4.27,13.17,4.27,13.17s2.4-10.26,4.27-13.17c1.43-2.24,7.8-7.21,7.8-7.21s-6.37-5-7.8-7.21C417.49,357.06,415.08,346.8,415.08,346.8Z"/><rect x="412.12" y="364.59" width="5.94" height="5.94" transform="translate(968.5 333.96) rotate(135)"/></g><rect class="cls-5" x="464.93" y="299.09" width="54.94" height="13.71" rx="6.86" ry="6.86" transform="translate(984.79 611.9) rotate(-180)"/><rect class="cls-2" x="464.93" y="299.09" width="42.27" height="13.71" rx="6.86" ry="6.86" transform="translate(972.13 611.9) rotate(180)"/><rect class="cls-5" x="464.93" y="553.07" width="54.94" height="13.71" rx="6.86" ry="6.86" transform="translate(984.79 1119.85) rotate(180)"/><rect class="cls-2" x="464.93" y="553.07" width="42.27" height="13.71" rx="6.86" ry="6.86" transform="translate(972.13 1119.85) rotate(-180)"/></g><g id="stars"><path class="cls-3" d="M108.65,439c4.29-13.53,11.43-17.43,11.43-17.43-8.29-4.57-11.43-18.47-11.43-18.47s-3.14,13.9-11.43,18.47C97.22,421.54,104.36,425.45,108.65,439Z"/><rect class="cls-2" x="91.43" y="307.85" width="13.81" height="13.81" transform="translate(251.37 22.66) rotate(45)"/><rect class="cls-2" x="158.7" y="110.28" width="10.28" height="10.28" transform="translate(129.6 -82.05) rotate(45)"/><path class="cls-2" d="M126.09,203.11c-1.65.16-4.51-3-4.68-4.68s3-4.68,4.68-4.68,4.69,3,4.68,4.68S127.74,203,126.09,203.11Z"/><circle class="cls-3" cx="122.98" cy="363.23" r="3"/><circle class="cls-1" cx="112.82" cy="260.73" r="3"/><circle class="cls-1" cx="262.9" cy="82.23" r="3"/><circle class="cls-1" cx="162.48" cy="184.85" r="3"/><path class="cls-3" d="M591.35,439c-4.29-13.53-11.43-17.43-11.43-17.43,8.29-4.57,11.43-18.47,11.43-18.47s3.14,13.9,11.43,18.47C602.78,421.54,595.64,425.45,591.35,439Z"/><rect class="cls-2" x="594.76" y="307.85" width="13.81" height="13.81" transform="translate(1249.67 111.88) rotate(135)"/><rect class="cls-2" x="531.02" y="110.28" width="10.28" height="10.28" transform="translate(996.9 -182.08) rotate(135)"/><path class="cls-2" d="M573.91,203.11c1.65,0.16,4.51-3,4.68-4.68s-3-4.68-4.68-4.68-4.69,3-4.68,4.68S572.26,203,573.91,203.11Z"/><circle class="cls-3" cx="577.02" cy="363.23" r="3"/><circle class="cls-1" cx="587.18" cy="260.73" r="3"/><circle class="cls-1" cx="437.1" cy="82.23" r="3"/><circle class="cls-1" cx="537.52" cy="184.85" r="3"/></g><g id="arch"><path class="cls-1" d="M529.22,628.57h-4l0.67-280.06v-0.06c0-.37,2.23-37.08-4.62-67.43l0-.13c0-.29-4.81-29.34-20.44-57.34-0.21-.41-16.4-32.91-32.91-47.47l-0.19-.19c-0.41-.47-41.8-47.54-117.7-65.25-76,17.73-117.29,64.78-117.7,65.25l-0.19.19c-16.51,14.56-32.7,47.06-32.86,47.39-15.68,28.09-20.44,57.14-20.48,57.43l0,0.13c-6.86,30.37-4.64,67.07-4.62,67.43v0.12l0.67,280h-4l-0.67-279.94c-0.1-1.77-2.13-38.14,4.7-68.44,0.27-1.62,5.27-30.62,20.88-58.59,0.63-1.27,16.6-33.32,33.66-48.44,2.29-2.58,44.45-49,120.18-66.53l0.45-.1,0.45,0.1c75.73,17.53,117.89,63.95,120.18,66.53,17.06,15.12,33,47.17,33.71,48.53,15.57,27.89,20.57,56.89,20.84,58.5,6.83,30.31,4.81,66.68,4.7,68.44Z"/><path class="cls-1" d="M539.25,628.57H535l0.7-281.13v-0.06c0-.39,2.36-39.16-4.88-71.21l0-.13c0-.31-5.08-31-21.58-60.55-0.22-.44-17.32-34.75-34.75-50.13l-0.2-.2c-0.43-.5-44.14-50.2-124.29-68.91C269.77,115,226.14,164.64,225.71,165.14l-0.2.2c-17.43,15.38-34.53,49.7-34.7,50C174.25,245,169.22,275.72,169.17,276l0,0.13c-7.24,32.07-4.9,70.82-4.88,71.21v0.13L165,628.56h-4.22l-0.7-281c-0.11-1.86-2.25-40.27,5-72.28,0.28-1.71,5.56-32.33,22.05-61.87,0.66-1.34,17.53-35.18,35.55-51.15C225,159.53,269.55,110.51,349.52,92L350,91.9,350.48,92c80,18.51,124.49,67.53,126.91,70.26,18,16,34.88,49.81,35.59,51.25,16.44,29.45,21.72,60.08,22,61.78,7.21,32,5.08,70.41,5,72.28Z"/></g></g></svg>